<svg width="262" height="174" viewBox="0 0 262 174" fill="none" xmlns="http://www.w3.org/2000/svg">
<rect width="262" height="174" rx="5" fill="#97C1CF"/>
<path d="M85.8265 85.8226C108.486 102.579 111.266 96.0211 111.723 88.4481C112.117 81.9146 115.372 75.6908 121.905 76.0863C123.428 76.1786 125.251 76.2057 127.459 76.0255C137.945 75.1697 145.739 65.5759 144.168 55.1733C142.162 41.8897 134.216 27.3819 110.868 26.448C67.6669 28.2236 64.9087 70.354 85.8265 85.8226Z" fill="#023A6E"/>
<circle cx="128.376" cy="57.7617" r="5.90959" fill="#97C1CF"/>
<circle cx="116.556" cy="41.2149" r="5.90959" fill="#97C1CF"/>
<circle cx="95.8728" cy="42.6923" r="5.90959" fill="#97C1CF"/>
<circle cx="87.3039" cy="59.8301" r="5.90959" fill="#97C1CF"/>
<circle cx="182.605" cy="54.3311" r="9.60308" transform="rotate(27.5017 182.605 54.3311)" stroke="#023A6E" stroke-width="2.95479"/>
<circle cx="190.519" cy="39.1298" r="2.2161" transform="rotate(27.5017 190.519 39.1298)" fill="#023A6E"/>
<circle cx="184.822" cy="88.4646" r="2.2161" transform="rotate(27.5017 184.822 88.4646)" fill="#023A6E"/>
<circle cx="153.372" cy="72.0912" r="2.2161" transform="rotate(27.5017 153.372 72.0912)" fill="#023A6E"/>
<rect x="188.485" y="38.2376" width="4.43219" height="7.38699" transform="rotate(27.5017 188.485 38.2376)" fill="#023A6E"/>
<rect x="172.023" y="56.9835" width="5.90959" height="68.8276" rx="0.590959" transform="rotate(37.5017 172.023 56.9835)" fill="#023A6E"/>
<path d="M130.965 116.504C130.495 116.818 129.894 116.357 130.077 115.822L131.179 112.587C131.309 112.204 131.777 112.062 132.098 112.309L133.836 113.642C134.157 113.889 134.141 114.377 133.805 114.602L130.965 116.504Z" fill="#023A6E"/>
<rect width="5.90959" height="68.8276" rx="0.590959" transform="matrix(-0.953708 -0.300735 -0.300735 0.953708 186.39 64.463)" fill="#023A6E"/>
<path d="M161.18 132.234C161.191 132.799 161.914 133.027 162.247 132.571L164.266 129.812C164.505 129.486 164.352 129.021 163.967 128.9L161.877 128.241C161.491 128.119 161.1 128.412 161.109 128.817L161.18 132.234Z" fill="#023A6E"/>
<rect x="153.98" y="71.2422" width="35.4575" height="2.36384" rx="1.18192" transform="rotate(27.5017 153.98 71.2422)" fill="#023A6E"/>
<rect x="61.4259" y="88.0787" width="90.1212" height="15.9559" rx="1.4774" transform="rotate(30 61.4259 88.0787)" fill="#023A6E"/>
<rect x="67.4882" y="92.9434" width="0.590959" height="5.90959" rx="0.295479" transform="rotate(30 67.4882 92.9434)" fill="#97C1CF"/>
<rect x="76.7004" y="98.2621" width="0.590959" height="5.90959" rx="0.295479" transform="rotate(30 76.7004 98.2621)" fill="#97C1CF"/>
<rect x="70.5589" y="94.7163" width="0.590959" height="2.95479" rx="0.295479" transform="rotate(30 70.5589 94.7163)" fill="#97C1CF"/>
<rect x="73.6297" y="96.4891" width="0.590959" height="2.95479" rx="0.295479" transform="rotate(30 73.6297 96.4891)" fill="#97C1CF"/>
<rect x="85.9125" y="103.581" width="0.590959" height="5.90959" rx="0.295479" transform="rotate(30 85.9125 103.581)" fill="#97C1CF"/>
<rect x="79.7711" y="100.035" width="0.590959" height="2.95479" rx="0.295479" transform="rotate(30 79.7711 100.035)" fill="#97C1CF"/>
<rect x="82.8418" y="101.808" width="0.590959" height="2.95479" rx="0.295479" transform="rotate(30 82.8418 101.808)" fill="#97C1CF"/>
<rect x="95.1246" y="108.899" width="0.590959" height="5.90959" rx="0.295479" transform="rotate(30 95.1246 108.899)" fill="#97C1CF"/>
<rect x="88.9832" y="105.354" width="0.590959" height="2.95479" rx="0.295479" transform="rotate(30 88.9832 105.354)" fill="#97C1CF"/>
<rect x="92.0539" y="107.126" width="0.590959" height="2.95479" rx="0.295479" transform="rotate(30 92.0539 107.126)" fill="#97C1CF"/>
<rect x="104.337" y="114.218" width="0.590959" height="5.90959" rx="0.295479" transform="rotate(30 104.337 114.218)" fill="#97C1CF"/>
<rect x="98.1954" y="110.672" width="0.590959" height="2.95479" rx="0.295479" transform="rotate(30 98.1954 110.672)" fill="#97C1CF"/>
<rect x="101.266" y="112.445" width="0.590959" height="2.95479" rx="0.295479" transform="rotate(30 101.266 112.445)" fill="#97C1CF"/>
<rect x="113.549" y="119.537" width="0.590959" height="5.90959" rx="0.295479" transform="rotate(30 113.549 119.537)" fill="#97C1CF"/>
<rect x="107.407" y="115.991" width="0.590959" height="2.95479" rx="0.295479" transform="rotate(30 107.407 115.991)" fill="#97C1CF"/>
<rect x="110.478" y="117.764" width="0.590959" height="2.95479" rx="0.295479" transform="rotate(30 110.478 117.764)" fill="#97C1CF"/>
<rect x="122.761" y="124.855" width="0.590959" height="5.90959" rx="0.295479" transform="rotate(30 122.761 124.855)" fill="#97C1CF"/>
<rect x="116.62" y="121.309" width="0.590959" height="2.95479" rx="0.295479" transform="rotate(30 116.62 121.309)" fill="#97C1CF"/>
<rect x="119.69" y="123.082" width="0.590959" height="2.95479" rx="0.295479" transform="rotate(30 119.69 123.082)" fill="#97C1CF"/>
<rect x="131.973" y="130.174" width="0.590959" height="5.90959" rx="0.295479" transform="rotate(30 131.973 130.174)" fill="#97C1CF"/>
<rect x="125.832" y="126.628" width="0.590959" height="2.95479" rx="0.295479" transform="rotate(30 125.832 126.628)" fill="#97C1CF"/>
<rect x="128.902" y="128.401" width="0.590959" height="2.95479" rx="0.295479" transform="rotate(30 128.902 128.401)" fill="#97C1CF"/>
</svg>
