<svg width="297" height="228" viewBox="0 0 297 228" fill="none" xmlns="http://www.w3.org/2000/svg">
<path d="M61.2485 112.315C104.526 144.319 109.47 131.363 110.26 116.865C110.919 104.771 116.994 93.0772 129.08 93.8715C132.204 94.0767 136.011 94.1475 140.717 93.721C160.105 91.9641 174.47 74.3008 171.712 55.0292C168.089 29.7161 153.19 1.78286 108.618 0C26.897 3.35882 21.6796 83.0541 61.2485 112.315Z" fill="#023A6E"/>
<circle cx="141.736" cy="59.2342" r="11.1788" fill="#037CA4"/>
<circle cx="119.378" cy="27.9334" r="11.1788" fill="#027BA4"/>
<circle cx="80.2525" cy="30.7284" r="11.1788" fill="#007AA3"/>
<circle cx="64.0435" cy="63.1468" r="11.1788" fill="#007AA3"/>
<circle cx="244.318" cy="52.7446" r="18.2263" transform="rotate(27.5017 244.318 52.7446)" stroke="#023A6E" stroke-width="5.46778"/>
<circle cx="259.288" cy="23.9893" r="4.19205" transform="rotate(27.5017 259.288 23.9893)" fill="#023A6E"/>
<circle cx="248.513" cy="117.313" r="4.19205" transform="rotate(27.5017 248.513 117.313)" fill="#023A6E"/>
<circle cx="189.019" cy="86.3404" r="4.19205" transform="rotate(27.5017 189.019 86.3404)" fill="#023A6E"/>
<rect x="255.441" y="22.3016" width="8.38409" height="13.9735" transform="rotate(27.5017 255.441 22.3016)" fill="#023A6E"/>
<rect x="224.3" y="57.762" width="11.1788" height="130.197" rx="1.09356" transform="rotate(37.5017 224.3 57.762)" fill="#023A6E"/>
<path d="M146.573 170.393C145.704 170.975 144.593 170.122 144.93 169.132L147.049 162.911C147.29 162.203 148.156 161.941 148.749 162.396L152.091 164.961C152.685 165.416 152.656 166.32 152.034 166.737L146.573 170.393Z" fill="#023A6E"/>
<rect width="11.1788" height="130.197" rx="1.09356" transform="matrix(-0.953708 -0.300735 -0.300735 0.953708 251.478 71.9105)" fill="#023A6E"/>
<path d="M203.79 200.18C203.812 201.226 205.148 201.648 205.766 200.803L209.647 195.5C210.089 194.896 209.807 194.037 209.093 193.812L205.076 192.545C204.362 192.32 203.638 192.862 203.654 193.61L203.79 200.18Z" fill="#023A6E"/>
<rect x="190.17" y="84.7343" width="67.0727" height="4.47152" rx="2.23576" transform="rotate(27.5017 190.17 84.7343)" fill="#023A6E"/>
<rect x="15.0913" y="116.583" width="170.477" height="30.1827" rx="2.73389" transform="rotate(30 15.0913 116.583)" fill="#023A6E"/>
<rect x="26.5586" y="125.785" width="1.11788" height="11.1788" rx="0.558939" transform="rotate(30 26.5586 125.785)" fill="#017BA3"/>
<rect x="43.9849" y="135.846" width="1.11788" height="11.1788" rx="0.558939" transform="rotate(30 43.9849 135.846)" fill="#017BA3"/>
<rect x="32.3672" y="129.139" width="1.11788" height="5.5894" rx="0.558939" transform="rotate(30 32.3672 129.139)" fill="#017BA3"/>
<rect x="38.1763" y="132.492" width="1.11788" height="5.5894" rx="0.558939" transform="rotate(30 38.1763 132.492)" fill="#017BA3"/>
<rect x="61.4106" y="145.907" width="1.11788" height="11.1788" rx="0.558939" transform="rotate(30 61.4106 145.907)" fill="#017BA3"/>
<rect x="49.7935" y="139.2" width="1.11788" height="5.5894" rx="0.558939" transform="rotate(30 49.7935 139.2)" fill="#017BA3"/>
<rect x="55.6025" y="142.553" width="1.11788" height="5.5894" rx="0.558939" transform="rotate(30 55.6025 142.553)" fill="#017BA3"/>
<rect x="78.8364" y="155.968" width="1.11788" height="11.1788" rx="0.558939" transform="rotate(30 78.8364 155.968)" fill="#017BA3"/>
<rect x="67.2192" y="149.261" width="1.11788" height="5.5894" rx="0.558939" transform="rotate(30 67.2192 149.261)" fill="#017BA3"/>
<rect x="73.0278" y="152.614" width="1.11788" height="5.5894" rx="0.558939" transform="rotate(30 73.0278 152.614)" fill="#017BA3"/>
<rect x="96.2627" y="166.029" width="1.11788" height="11.1788" rx="0.558939" transform="rotate(30 96.2627 166.029)" fill="#017BA3"/>
<rect x="84.6455" y="159.322" width="1.11788" height="5.5894" rx="0.558939" transform="rotate(30 84.6455 159.322)" fill="#017BA3"/>
<rect x="90.4546" y="162.675" width="1.11788" height="5.5894" rx="0.558939" transform="rotate(30 90.4546 162.675)" fill="#017BA3"/>
<rect x="113.689" y="176.089" width="1.11788" height="11.1788" rx="0.558939" transform="rotate(30 113.689 176.089)" fill="#017BA3"/>
<rect x="102.072" y="169.382" width="1.11788" height="5.5894" rx="0.558939" transform="rotate(30 102.072 169.382)" fill="#017BA3"/>
<rect x="107.88" y="172.736" width="1.11788" height="5.5894" rx="0.558939" transform="rotate(30 107.88 172.736)" fill="#017BA3"/>
<rect x="131.115" y="186.15" width="1.11788" height="11.1788" rx="0.558939" transform="rotate(30 131.115 186.15)" fill="#017BA3"/>
<rect x="119.498" y="179.443" width="1.11788" height="5.5894" rx="0.558939" transform="rotate(30 119.498 179.443)" fill="#017BA3"/>
<rect x="125.307" y="182.797" width="1.11788" height="5.5894" rx="0.558939" transform="rotate(30 125.307 182.797)" fill="#017BA3"/>
<rect x="148.541" y="196.211" width="1.11788" height="11.1788" rx="0.558939" transform="rotate(30 148.541 196.211)" fill="#017BA3"/>
<rect x="136.924" y="189.504" width="1.11788" height="5.5894" rx="0.558939" transform="rotate(30 136.924 189.504)" fill="#017BA3"/>
<rect x="142.732" y="192.858" width="1.11788" height="5.5894" rx="0.558939" transform="rotate(30 142.732 192.858)" fill="#017BA3"/>
</svg>
