<svg width="354" height="293" viewBox="0 0 354 293" fill="none" xmlns="http://www.w3.org/2000/svg">
<path d="M289.512 156.207C290.374 156.602 290.804 157.579 290.515 158.482L285.43 174.36C285.141 175.262 284.223 175.807 283.292 175.629L266.602 172.431C265.498 172.219 264.827 171.089 265.17 170.018L271.502 150.246C271.845 149.175 273.047 148.645 274.069 149.114L289.512 156.207Z" fill="#023A6E"/>
<path d="M225.389 64.1317C225.784 63.2703 226.761 62.8398 227.664 63.1289L243.542 68.2138C244.444 68.5029 244.989 69.4206 244.811 70.3517L241.613 87.0416C241.401 88.1462 240.272 88.8171 239.2 88.4741L219.428 82.1419C218.357 81.7989 217.827 80.5964 218.296 79.5744L225.389 64.1317Z" fill="#023A6E"/>
<path d="M196.652 220.734C196.256 221.595 195.28 222.026 194.377 221.736L178.499 216.652C177.596 216.362 177.051 215.445 177.23 214.514L180.427 197.824C180.639 196.719 181.769 196.048 182.84 196.391L202.613 202.723C203.684 203.066 204.214 204.269 203.745 205.291L196.652 220.734Z" fill="#023A6E"/>
<circle cx="211.231" cy="142.076" r="53.1095" transform="rotate(-27.2425 211.231 142.076)" stroke="#023A6E" stroke-width="18.7445"/>
<path d="M276.203 97.1551C277.092 96.8257 278.087 97.2119 278.521 98.0547L286.152 112.878C286.586 113.72 286.323 114.755 285.538 115.287L271.475 124.827C270.545 125.459 269.271 125.134 268.757 124.134L259.253 105.675C258.738 104.675 259.213 103.45 260.268 103.059L276.203 97.1551Z" fill="#023A6E"/>
<path d="M146.815 186.711C145.926 187.04 144.931 186.654 144.497 185.811L136.866 170.988C136.432 170.145 136.695 169.111 137.48 168.579L151.543 159.038C152.473 158.407 153.747 158.732 154.261 159.731L163.765 178.19C164.28 179.19 163.805 180.415 162.75 180.806L146.815 186.711Z" fill="#023A6E"/>
<path d="M238.021 216.383C238.553 217.167 239.587 217.431 240.43 216.997L255.253 209.365C256.095 208.931 256.482 207.936 256.152 207.047L250.248 191.113C249.857 190.058 248.632 189.583 247.632 190.097L229.173 199.601C228.173 200.116 227.849 201.389 228.48 202.32L238.021 216.383Z" fill="#023A6E"/>
<path d="M166.31 77.1042C165.981 76.2153 166.367 75.2204 167.21 74.7864L182.033 67.1546C182.876 66.7206 183.91 66.9843 184.442 67.7688L193.983 81.8315C194.614 82.7622 194.289 84.0356 193.289 84.5504L174.83 94.0543C173.831 94.5692 172.606 94.0937 172.215 93.0391L166.31 77.1042Z" fill="#023A6E"/>
<path d="M132.91 127.469C132.048 127.074 131.618 126.097 131.907 125.194L136.992 109.316C137.281 108.413 138.199 107.869 139.13 108.047L155.82 111.245C156.924 111.456 157.595 112.586 157.252 113.657L150.92 133.43C150.577 134.501 149.375 135.031 148.352 134.562L132.91 127.469Z" fill="#023A6E"/>
<path d="M155.635 190.931C156.394 191.007 156.976 191.638 156.991 192.4L157.264 205.802C157.279 206.564 156.723 207.218 155.969 207.325L142.441 209.244C141.546 209.371 140.741 208.687 140.723 207.783L140.383 191.093C140.365 190.189 141.141 189.473 142.041 189.563L155.635 190.931Z" fill="#023A6E"/>
<path d="M82.8587 137.622C82.935 136.863 83.5656 136.281 84.3276 136.266L97.7295 135.993C98.4916 135.978 99.1452 136.534 99.2523 137.288L101.172 150.816C101.299 151.711 100.614 152.516 99.7103 152.534L83.0208 152.874C82.1168 152.892 81.4001 152.116 81.4907 151.216L82.8587 137.622Z" fill="#023A6E"/>
<path d="M101.833 264.22C101.757 264.978 101.126 265.56 100.364 265.576L86.9623 265.848C86.2003 265.864 85.5467 265.308 85.4396 264.553L83.5201 251.026C83.3931 250.13 84.0775 249.325 84.9816 249.307L101.671 248.968C102.575 248.949 103.292 249.726 103.201 250.625L101.833 264.22Z" fill="#023A6E"/>
<circle cx="92.4124" cy="200.595" r="42.7008" transform="rotate(-46.1648 92.4124 200.595)" stroke="#023A6E" stroke-width="15.0709"/>
<path d="M130.116 149.489C130.706 149.007 131.563 149.041 132.113 149.569L141.782 158.853C142.332 159.381 142.401 160.236 141.943 160.846L133.735 171.768C133.192 172.491 132.139 172.576 131.487 171.95L119.445 160.389C118.793 159.762 118.835 158.707 119.536 158.135L130.116 149.489Z" fill="#023A6E"/>
<path d="M55.0573 251.338C54.4671 251.821 53.6097 251.786 53.0599 251.258L43.3906 241.974C42.8408 241.447 42.7717 240.591 43.2296 239.982L51.4377 229.059C51.981 228.336 53.0341 228.251 53.6863 228.877L65.7275 240.439C66.3798 241.065 66.3375 242.121 65.6373 242.693L55.0573 251.338Z" fill="#023A6E"/>
<path d="M132.162 250.126C132.771 250.584 133.626 250.515 134.154 249.965L143.438 240.295C143.966 239.746 144 238.888 143.518 238.298L134.873 227.718C134.3 227.018 133.245 226.976 132.618 227.628L121.057 239.669C120.431 240.321 120.516 241.374 121.239 241.918L132.162 250.126Z" fill="#023A6E"/>
<path d="M41.3061 162.892C40.8238 162.302 40.8581 161.444 41.386 160.895L50.6699 151.225C51.1978 150.676 52.0531 150.606 52.6624 151.064L63.5851 159.272C64.308 159.816 64.3931 160.869 63.7668 161.521L52.2055 173.562C51.5793 174.215 50.5236 174.172 49.9514 173.472L41.3061 162.892Z" fill="#023A6E"/>
<path d="M29.0364 209.905C28.278 209.829 27.696 209.199 27.6805 208.437L27.4081 195.035C27.3926 194.273 27.9485 193.619 28.7031 193.512L42.2307 191.592C43.126 191.465 43.9308 192.15 43.9492 193.054L44.2885 209.743C44.3069 210.647 43.5305 211.364 42.6308 211.273L29.0364 209.905Z" fill="#023A6E"/>
</svg>
