<svg width="261" height="175" viewBox="0 0 261 175" fill="none" xmlns="http://www.w3.org/2000/svg">
<rect width="261" height="175" rx="5" fill="#97C1CF"/>
<path d="M201.958 82.4751C202.413 82.684 202.64 83.1996 202.487 83.6763L199.803 92.0596C199.65 92.5363 199.165 92.824 198.674 92.7298L189.862 91.0414C189.278 90.9297 188.924 90.3331 189.105 89.7676L192.449 79.3278C192.63 78.7623 193.265 78.4824 193.804 78.7303L201.958 82.4751Z" fill="#023A6E"/>
<path d="M168.102 33.8608C168.311 33.406 168.826 33.1787 169.303 33.3313L177.686 36.0161C178.163 36.1687 178.451 36.6533 178.356 37.1448L176.668 45.9569C176.556 46.5401 175.96 46.8943 175.394 46.7132L164.954 43.3699C164.389 43.1888 164.109 42.554 164.357 42.0143L168.102 33.8608Z" fill="#023A6E"/>
<path d="M152.929 116.544C152.72 116.999 152.204 117.227 151.728 117.074L143.344 114.389C142.868 114.237 142.58 113.752 142.674 113.26L144.363 104.448C144.474 103.865 145.071 103.511 145.636 103.692L156.076 107.035C156.642 107.216 156.922 107.851 156.674 108.391L152.929 116.544Z" fill="#023A6E"/>
<circle cx="160.626" cy="75.0142" r="28.0411" transform="rotate(-27.2425 160.626 75.0142)" stroke="#023A6E" stroke-width="9.89687"/>
<path d="M194.931 51.2967C195.4 51.1228 195.925 51.3267 196.154 51.7717L200.184 59.598C200.413 60.043 200.274 60.589 199.86 60.87L192.435 65.9073C191.943 66.2406 191.271 66.0692 190.999 65.5413L185.981 55.7952C185.709 55.2673 185.96 54.6205 186.517 54.4141L194.931 51.2967Z" fill="#023A6E"/>
<path d="M126.615 98.5808C126.146 98.7547 125.621 98.5508 125.392 98.1058L121.362 90.2795C121.133 89.8345 121.272 89.2885 121.686 89.0075L129.111 83.9702C129.603 83.6369 130.275 83.8083 130.547 84.3362L135.565 94.0823C135.837 94.6102 135.586 95.257 135.029 95.4634L126.615 98.5808Z" fill="#023A6E"/>
<path d="M174.771 114.247C175.052 114.662 175.598 114.801 176.043 114.572L183.869 110.542C184.314 110.313 184.518 109.788 184.344 109.318L181.227 100.905C181.02 100.348 180.374 100.097 179.846 100.369L170.099 105.387C169.572 105.659 169.4 106.331 169.734 106.822L174.771 114.247Z" fill="#023A6E"/>
<path d="M136.909 40.7101C136.735 40.2408 136.939 39.7155 137.384 39.4863L145.21 35.4568C145.655 35.2277 146.201 35.3669 146.482 35.7811L151.519 43.2061C151.853 43.6975 151.681 44.3698 151.153 44.6416L141.407 49.6595C140.879 49.9314 140.232 49.6803 140.026 49.1235L136.909 40.7101Z" fill="#023A6E"/>
<path d="M119.274 67.3022C118.819 67.0933 118.592 66.5777 118.745 66.101L121.429 57.7176C121.582 57.241 122.067 56.9533 122.558 57.0475L131.37 58.7359C131.953 58.8476 132.308 59.4442 132.126 60.0097L128.783 70.4495C128.602 71.015 127.967 71.2948 127.428 71.047L119.274 67.3022Z" fill="#023A6E"/>
<path d="M131.273 100.809C131.673 100.85 131.98 101.182 131.989 101.585L132.133 108.661C132.141 109.063 131.847 109.408 131.449 109.465L124.306 110.478C123.834 110.545 123.409 110.184 123.399 109.707L123.22 100.895C123.21 100.417 123.62 100.039 124.095 100.087L131.273 100.809Z" fill="#023A6E"/>
<path d="M92.8479 72.6625C92.8882 72.262 93.2211 71.9547 93.6234 71.9466L100.699 71.8027C101.102 71.7945 101.447 72.088 101.503 72.4865L102.517 79.6288C102.584 80.1015 102.223 80.5265 101.745 80.5362L92.9335 80.7154C92.4561 80.7251 92.0778 80.3152 92.1256 79.8401L92.8479 72.6625Z" fill="#023A6E"/>
<path d="M102.866 139.505C102.826 139.905 102.493 140.212 102.091 140.221L95.0145 140.364C94.6122 140.373 94.267 140.079 94.2105 139.681L93.197 132.538C93.13 132.066 93.4914 131.641 93.9687 131.631L102.781 131.452C103.258 131.442 103.636 131.852 103.588 132.327L102.866 139.505Z" fill="#023A6E"/>
<circle cx="97.8923" cy="105.912" r="22.5455" transform="rotate(-46.1648 97.8923 105.912)" stroke="#023A6E" stroke-width="7.95722"/>
<path d="M117.799 78.9285C118.111 78.6738 118.563 78.6919 118.854 78.9707L123.959 83.8725C124.249 84.1512 124.286 84.6028 124.044 84.9245L119.71 90.6915C119.423 91.0732 118.867 91.1181 118.523 90.7875L112.165 84.6833C111.821 84.3526 111.843 83.7952 112.213 83.4931L117.799 78.9285Z" fill="#023A6E"/>
<path d="M78.1694 132.703C77.8578 132.958 77.4051 132.94 77.1148 132.661L72.0096 127.759C71.7193 127.481 71.6828 127.029 71.9245 126.707L76.2583 120.94C76.5452 120.559 77.1012 120.514 77.4456 120.844L83.8032 126.949C84.1475 127.279 84.1253 127.837 83.7555 128.139L78.1694 132.703Z" fill="#023A6E"/>
<path d="M118.879 132.063C119.201 132.305 119.653 132.268 119.931 131.978L124.833 126.873C125.112 126.583 125.13 126.13 124.875 125.818L120.311 120.232C120.009 119.863 119.451 119.84 119.121 120.185L113.016 126.542C112.686 126.887 112.731 127.443 113.112 127.729L118.879 132.063Z" fill="#023A6E"/>
<path d="M70.9093 86.0049C70.6547 85.6933 70.6728 85.2406 70.9515 84.9503L75.8533 79.8451C76.132 79.5548 76.5836 79.5183 76.9053 79.7601L82.6724 84.0939C83.054 84.3807 83.099 84.9367 82.7683 85.2811L76.6641 91.6387C76.3334 91.9831 75.776 91.9608 75.4739 91.5911L70.9093 86.0049Z" fill="#023A6E"/>
<path d="M64.4305 110.827C64.03 110.787 63.7228 110.454 63.7146 110.052L63.5707 102.976C63.5625 102.573 63.856 102.228 64.2545 102.172L71.3969 101.158C71.8696 101.091 72.2945 101.453 72.3042 101.93L72.4834 110.742C72.4931 111.219 72.0832 111.597 71.6081 111.55L64.4305 110.827Z" fill="#023A6E"/>
</svg>
