<svg width="287" height="228" viewBox="0 0 287 228" fill="none" xmlns="http://www.w3.org/2000/svg">
<rect x="8.9375" y="53.0435" width="101.963" height="30.4368" rx="5.07279" transform="rotate(-19.2954 8.9375 53.0435)" fill="#023A6E"/>
<rect x="19.2495" y="77.3816" width="106.36" height="123.1" rx="5.07279" transform="rotate(-19.2954 19.2495 77.3816)" fill="#023A6E"/>
<rect y="56.1725" width="26.2094" height="149.478" rx="13.1047" transform="rotate(-19.2954 0 56.1725)" fill="#023A6E"/>
<rect x="48.3203" y="154.274" width="13.0202" height="40.9205" transform="rotate(-19.2954 48.3203 154.274)" fill="#023A6E"/>
<rect x="24.8506" y="55.3541" width="81.2826" height="18.9384" transform="rotate(-19.2954 24.8506 55.3541)" fill="#007AA3"/>
<ellipse cx="27.9792" cy="64.2921" rx="9.01319" ry="9.46922" transform="rotate(-19.2954 27.9792 64.2921)" fill="#007AA3"/>
<rect x="31.0601" y="73.2469" width="5.74917" height="123.1" transform="rotate(-19.2954 31.0601 73.2469)" fill="#023A6E"/>
<path d="M233.443 74.2228C228.765 87.9389 222.451 99.5417 216.102 107.219C212.922 111.063 209.812 113.828 206.985 115.415C204.157 117.003 201.847 117.293 200.028 116.672C198.208 116.051 196.557 114.411 195.288 111.425C194.02 108.441 193.248 104.352 193.081 99.3657C192.748 89.4095 194.841 76.3669 199.52 62.6508C204.199 48.9346 210.512 37.3318 216.861 29.655C220.041 25.81 223.151 23.0452 225.978 21.4583C228.806 19.8706 231.116 19.5809 232.935 20.2016C234.755 20.8222 236.406 22.463 237.675 25.4483C238.943 28.4322 239.715 32.5213 239.882 37.5078C240.215 47.464 238.122 60.5066 233.443 74.2228Z" stroke="#023A6E" stroke-width="4.48038"/>
<path d="M230.176 56.5187C239.715 67.4288 246.607 78.6982 250.081 88.0346C251.821 92.7107 252.66 96.7865 252.621 100.028C252.582 103.272 251.678 105.417 250.23 106.682C248.783 107.948 246.537 108.557 243.317 108.163C240.099 107.769 236.172 106.393 231.77 104.045C222.981 99.3555 212.732 91.0216 203.193 80.1115C193.654 69.2014 186.762 57.932 183.288 48.5957C181.548 43.9195 180.709 39.8438 180.748 36.6019C180.787 33.3584 181.691 31.2133 183.139 29.948C184.586 28.6826 186.832 28.0731 190.052 28.4671C193.27 28.8609 197.197 30.2368 201.599 32.5855C210.388 37.2747 220.637 45.6087 230.176 56.5187Z" stroke="#023A6E" stroke-width="4.48038"/>
<path d="M220.154 85.8975C205.936 88.7036 192.731 89.037 182.909 87.3775C177.989 86.5463 174.039 85.2353 171.252 83.5804C168.462 81.9246 167.057 80.0692 166.684 78.1832C166.312 76.2973 166.907 74.0469 168.859 71.4556C170.809 68.8655 173.964 66.1524 178.199 63.5144C186.654 58.2475 198.996 53.5389 213.214 50.7328C227.432 47.9267 240.637 47.5933 250.46 49.2529C255.38 50.084 259.329 51.395 262.117 53.0499C264.906 54.7057 266.312 56.5611 266.684 58.4471C267.056 60.3331 266.461 62.5834 264.51 65.1748C262.56 67.7648 259.405 70.4779 255.17 73.1159C246.714 78.3828 234.372 83.0914 220.154 85.8975Z" stroke="#023A6E" stroke-width="4.48038"/>
<circle cx="216.482" cy="68.4367" r="11.201" transform="rotate(18.8355 216.482 68.4367)" fill="#023A6E"/>
<rect width="13.1824" height="124.07" rx="1.31682" transform="matrix(-0.601225 -0.79908 -0.79908 0.601225 245.047 138.894)" fill="#023A6E"/>
<path d="M135.576 211.34C134.865 212.38 135.88 213.728 137.076 213.334L144.308 210.946C145.164 210.664 145.49 209.624 144.948 208.904L142.013 205.003C141.471 204.283 140.382 204.308 139.874 205.052L135.576 211.34Z" fill="#023A6E"/>
<line x1="233.436" y1="146.677" x2="239.031" y2="154.113" stroke="#023A6E" stroke-width="3.10175" stroke-linecap="round"/>
<line x1="216.724" y1="170.897" x2="239.031" y2="154.113" stroke="#023A6E" stroke-width="3.10175" stroke-linecap="round" stroke-linejoin="round"/>
<rect x="243.02" y="125.881" width="9.30525" height="10.8561" rx="3.10175" transform="rotate(53.0423 243.02 125.881)" fill="#023A6E"/>
</svg>
