<svg width="262" height="175" viewBox="0 0 262 175" fill="none" xmlns="http://www.w3.org/2000/svg">
<rect width="262" height="175" rx="5" fill="#97C1CF"/>
<rect x="52.8704" y="52.3863" width="58.987" height="17.608" rx="2.93467" transform="rotate(-19.2954 52.8704 52.3863)" fill="#023A6E"/>
<rect x="58.8362" y="66.4662" width="61.5303" height="71.2148" rx="2.93467" transform="rotate(-19.2954 58.8362 66.4662)" fill="#023A6E"/>
<rect x="47.7" y="54.1964" width="15.1625" height="86.4751" rx="7.58124" transform="rotate(-19.2954 47.7 54.1964)" fill="#023A6E"/>
<rect x="75.6538" y="110.949" width="7.53233" height="23.673" transform="rotate(-19.2954 75.6538 110.949)" fill="#023A6E"/>
<rect x="62.0761" y="53.723" width="47.023" height="10.9561" transform="rotate(-19.2954 62.0761 53.723)" fill="#97C1CF"/>
<ellipse cx="63.8864" cy="58.894" rx="5.21424" ry="5.47806" transform="rotate(-19.2954 63.8864 58.894)" fill="#97C1CF"/>
<rect x="65.6685" y="64.0742" width="3.32596" height="71.2148" transform="rotate(-19.2954 65.6685 64.0742)" fill="#023A6E"/>
<path d="M182.75 64.6387C180.043 72.5737 176.391 79.286 172.718 83.7271C170.878 85.9515 169.079 87.551 167.444 88.469C165.807 89.3876 164.471 89.5551 163.419 89.1961C162.366 88.837 161.411 87.8878 160.677 86.1608C159.943 84.4345 159.497 82.069 159.4 79.1842C159.207 73.4244 160.418 65.8791 163.125 57.9442C165.831 50.0092 169.484 43.2968 173.157 38.8557C174.996 36.6313 176.795 35.0319 178.431 34.1138C180.067 33.1953 181.404 33.0277 182.456 33.3868C183.509 33.7458 184.464 34.695 185.198 36.4221C185.931 38.1483 186.378 40.5139 186.475 43.3987C186.668 49.1584 185.457 56.7037 182.75 64.6387Z" stroke="#023A6E" stroke-width="2.59196"/>
<path d="M180.86 54.3967C186.378 60.7083 190.365 67.2278 192.375 72.629C193.381 75.3342 193.867 77.6921 193.844 79.5676C193.822 81.444 193.299 82.6849 192.461 83.4169C191.624 84.1489 190.325 84.5016 188.462 84.2736C186.6 84.0458 184.328 83.2498 181.782 81.8911C176.697 79.1783 170.768 74.357 165.25 68.0454C159.731 61.7338 155.744 55.2143 153.734 49.8131C152.728 47.1079 152.242 44.75 152.265 42.8746C152.288 40.9982 152.811 39.7572 153.648 39.0252C154.485 38.2932 155.785 37.9405 157.647 38.1685C159.509 38.3963 161.781 39.1923 164.328 40.551C169.412 43.2638 175.341 48.0851 180.86 54.3967Z" stroke="#023A6E" stroke-width="2.59196"/>
<path d="M175.062 71.3927C166.837 73.0161 159.197 73.2089 153.515 72.2489C150.669 71.7681 148.384 71.0096 146.771 70.0522C145.158 69.0944 144.344 68.021 144.129 66.9299C143.914 65.8389 144.258 64.537 145.387 63.0379C146.515 61.5395 148.34 59.9699 150.79 58.4438C155.682 55.3969 162.822 52.6729 171.047 51.0495C179.272 49.4261 186.912 49.2333 192.594 50.1933C195.44 50.6742 197.725 51.4326 199.338 52.39C200.952 53.3479 201.765 54.4213 201.98 55.5123C202.196 56.6034 201.851 57.9052 200.722 59.4044C199.594 60.9027 197.769 62.4723 195.319 63.9984C190.427 67.0454 183.287 69.7694 175.062 71.3927Z" stroke="#023A6E" stroke-width="2.59196"/>
<circle cx="172.937" cy="61.2914" r="6.47989" transform="rotate(18.8355 172.937 61.2914)" fill="#023A6E"/>
<rect width="7.6262" height="71.776" rx="0.761794" transform="matrix(-0.601225 -0.79908 -0.79908 0.601225 189.463 102.052)" fill="#023A6E"/>
<path d="M126.132 143.963C125.721 144.564 126.308 145.344 127 145.116L131.184 143.735C131.679 143.572 131.868 142.97 131.554 142.554L129.856 140.297C129.543 139.88 128.913 139.895 128.619 140.325L126.132 143.963Z" fill="#023A6E"/>
<line x1="182.746" y1="106.554" x2="185.982" y2="110.856" stroke="#023A6E" stroke-width="1.7944" stroke-linecap="round"/>
<line x1="173.078" y1="120.566" x2="185.983" y2="110.856" stroke="#023A6E" stroke-width="1.7944" stroke-linecap="round" stroke-linejoin="round"/>
<rect x="188.29" y="94.5235" width="5.3832" height="6.2804" rx="1.7944" transform="rotate(53.0423 188.29 94.5235)" fill="#023A6E"/>
</svg>
