<svg width="39" height="39" viewBox="0 0 39 39" fill="none" xmlns="http://www.w3.org/2000/svg">
<circle cx="19.5252" cy="19.3901" r="18.2234" stroke="#F9F450" stroke-width="1.12722"/>
<path d="M9.67374 11.591C9.67374 10.4246 10.3235 9.84141 11.6229 9.84141C12.9223 9.84141 13.5721 10.4246 13.5721 11.591C13.5721 12.1467 13.4077 12.5812 13.0789 12.8943C12.7579 13.1996 12.2726 13.3522 11.6229 13.3522C10.3235 13.3522 9.67374 12.7651 9.67374 11.591ZM13.4077 28.1118H9.82638V14.9844H13.4077V28.1118ZM29.2945 28.1118H25.7132V20.4444C25.7132 19.4972 25.5449 18.7887 25.2083 18.3191C24.8717 17.8416 24.3355 17.6028 23.5996 17.6028C22.5977 17.6028 21.8736 17.9394 21.4274 18.6126C20.9812 19.278 20.7581 20.3856 20.7581 21.9356V28.1118H17.1768V14.9844H19.9127L20.3941 16.6635H20.5937C20.9929 16.0294 21.5409 15.5519 22.2376 15.2309C22.9421 14.9022 23.7405 14.7378 24.6329 14.7378C26.1594 14.7378 27.3179 15.1527 28.1085 15.9824C28.8992 16.8044 29.2945 17.9942 29.2945 19.552V28.1118Z" fill="#F9F450"/>
</svg>
