<svg width="262" height="175" viewBox="0 0 262 175" fill="none" xmlns="http://www.w3.org/2000/svg">
<rect width="262" height="175" rx="5" fill="#97C1CF"/>
<ellipse cx="79.099" cy="133.181" rx="15.8471" ry="12.4912" transform="rotate(-16.1109 79.099 133.181)" fill="#023A6E"/>
<ellipse cx="132.792" cy="127.401" rx="15.8471" ry="12.4912" transform="rotate(-16.1109 132.792 127.401)" fill="#023A6E"/>
<rect x="88.5598" y="62.9026" width="6.15239" height="68.9813" fill="#023A6E"/>
<rect x="142.253" y="57.3094" width="6.15239" height="68.9813" fill="#023A6E"/>
<ellipse cx="173.781" cy="71.9927" rx="11.2398" ry="8.85958" transform="rotate(-16.1109 173.781 71.9927)" fill="#023A6E"/>
<rect x="181.289" y="30.6098" width="3.5617" height="39.9342" fill="#023A6E"/>
<path d="M88.5598 64.3009C88.5598 62.6255 89.7536 61.1879 91.4004 60.8801L144.286 50.9949C146.427 50.5947 148.406 52.2375 148.406 54.4156V71.7846C148.406 73.4482 147.228 74.8791 145.596 75.1995L92.71 85.5789C90.5601 86.0009 88.5598 84.355 88.5598 82.1641V64.3009Z" fill="#023A6E"/>
<path d="M181.285 25.056L183.401 25.2519C186.408 25.5303 189.33 26.3964 192.004 27.8009L192.944 28.295C194.467 29.0952 195.854 30.1305 197.055 31.3627C198.946 33.304 200.326 35.6844 201.071 38.2905L201.207 38.7677C201.675 40.4062 201.913 42.102 201.913 43.8061V50.6252L199.837 46.2435C199.004 44.4849 197.864 42.8895 196.469 41.5325C194.846 39.9532 192.912 38.7289 190.79 37.9377L190.083 37.6744C187.859 36.8449 185.504 36.4201 183.13 36.4201H181.285V25.056Z" fill="#023A6E"/>
</svg>
