<svg width="260" height="228" viewBox="0 0 260 228" fill="none" xmlns="http://www.w3.org/2000/svg">
<ellipse cx="34.217" cy="197.941" rx="29.0107" ry="22.8673" transform="rotate(-16.1109 34.217 197.941)" fill="#023A6E"/>
<ellipse cx="132.512" cy="187.36" rx="29.0107" ry="22.8673" transform="rotate(-16.1109 132.512 187.36)" fill="#023A6E"/>
<rect x="51.5371" y="69.2844" width="11.263" height="126.282" fill="#023A6E"/>
<rect x="149.832" y="59.0452" width="11.263" height="126.282" fill="#023A6E"/>
<ellipse cx="207.549" cy="85.9256" rx="20.5763" ry="16.219" transform="rotate(-16.1109 207.549 85.9256)" fill="#023A6E"/>
<rect x="221.293" y="10.167" width="6.52029" height="73.1063" fill="#023A6E"/>
<path d="M51.5371 70.7061C51.5371 68.299 53.2523 66.2335 55.6184 65.7912L155.177 47.1822C158.253 46.6072 161.095 48.9676 161.095 52.0971V86.6725C161.095 89.0626 159.404 91.1185 157.058 91.5789L57.5 111.118C54.4111 111.725 51.5371 109.36 51.5371 106.212V70.7061Z" fill="#023A6E"/>
<path d="M221.285 0L226.489 0.481813C231.115 0.910198 235.613 2.24277 239.726 4.40391L242.629 5.92945C245.417 7.39442 247.957 9.28971 250.155 11.5456C253.618 15.0993 256.144 19.4571 257.507 24.228L257.757 25.1016C258.614 28.1011 259.049 31.2055 259.049 34.3251V46.8087L255.249 38.7873C253.724 35.5679 251.636 32.6472 249.083 30.1631C246.111 27.2718 242.57 25.0306 238.686 23.5821L237.234 23.0407C233.266 21.5614 229.067 20.8039 224.832 20.8039H221.285V0Z" fill="#023A6E"/>
</svg>
