<svg width="284" height="160" viewBox="0 0 284 160" fill="none" xmlns="http://www.w3.org/2000/svg">
<path d="M7.891 39.7795C7.1002 36.9186 8.8783 33.9816 11.7798 33.356L140.912 5.51687C141.629 5.36225 142.371 5.36225 143.088 5.51688L272.493 33.4149C275.343 34.0294 277.12 36.88 276.416 39.7092L249.186 149.165C248.569 151.645 246.231 153.3 243.687 153.059L143.481 143.54C142.491 143.446 141.493 143.448 140.503 143.545L43.6433 153.052C41.1442 153.298 38.8309 151.709 38.1619 149.289L7.891 39.7795Z" stroke="#023A6E" stroke-width="10.3273"/>
<rect x="128.237" y="39.2437" width="27.5262" height="79.52" rx="7.2449" fill="#023A6E"/>
<rect x="102.24" y="92.7668" width="27.5262" height="79.52" rx="7.2449" transform="rotate(-90 102.24 92.7668)" fill="#023A6E"/>
</svg>
