<svg width="261" height="174" viewBox="0 0 261 174" fill="none" xmlns="http://www.w3.org/2000/svg">
<rect width="261" height="174" rx="5" fill="#97C1CF"/>
<path d="M65.9824 67.8276C65.6025 66.4534 66.4566 65.0426 67.8503 64.7422L129.877 51.37L129.355 48.9454L129.877 51.37C130.222 51.2957 130.578 51.2957 130.923 51.37L131.445 48.9474L130.923 51.37L193.081 64.7705C194.45 65.0656 195.303 66.4348 194.965 67.7938L181.885 120.37C181.589 121.561 180.466 122.356 179.244 122.24L131.111 117.668C130.636 117.623 130.157 117.623 129.681 117.67L83.1555 122.237C81.9551 122.355 80.844 121.592 80.5226 120.429L65.9824 67.8276Z" stroke="#023A6E" stroke-width="4.96058"/>
<rect x="123.789" y="67.5702" width="13.2219" height="38.1965" rx="3.48" fill="#023A6E"/>
<rect x="111.302" y="93.2794" width="13.2219" height="38.1965" rx="3.48" transform="rotate(-90 111.302 93.2794)" fill="#023A6E"/>
</svg>
