<svg width="211" height="193" viewBox="0 0 211 193" fill="none" xmlns="http://www.w3.org/2000/svg">
<rect y="181.929" width="211" height="10.3156" rx="2.34444" fill="#023A6E"/>
<path d="M11.7227 173.958C11.7227 172.663 12.7723 171.613 14.0671 171.613H196.934C198.229 171.613 199.278 172.663 199.278 173.958V181.929H11.7227V173.958Z" fill="#023A6E"/>
<path d="M11.7227 49.7021H199.278V57.6733C199.278 58.9681 198.229 60.0177 196.934 60.0177H14.0671C12.7723 60.0177 11.7227 58.9681 11.7227 57.6733V49.7021Z" fill="#023A6E"/>
<path d="M23.4443 163.642C23.4443 162.347 24.494 161.298 25.7888 161.298H185.211C186.506 161.298 187.555 162.347 187.555 163.642V171.613H23.4443V163.642Z" fill="#023A6E"/>
<path d="M23.4443 60.0178H187.555V71.74C187.555 73.0348 186.506 74.0845 185.211 74.0845H25.7888C24.494 74.0845 23.4443 73.0348 23.4443 71.74V60.0178Z" fill="#023A6E"/>
<path d="M34.4632 74.0847H52.2809L55.3287 161.298H31.8843L34.4632 74.0847Z" fill="#023A6E"/>
<path d="M158.25 74.0847H176.068L179.116 161.298H155.671L158.25 74.0847Z" fill="#023A6E"/>
<path d="M116.988 74.0847H134.805L137.853 161.298H114.409L116.988 74.0847Z" fill="#023A6E"/>
<path d="M75.7254 74.0847H93.5432L96.5909 161.298H73.1465L75.7254 74.0847Z" fill="#023A6E"/>
<path d="M104.403 0.581879C105.089 0.217937 105.912 0.217938 106.598 0.581881L199.278 49.7022H11.7227L104.403 0.581879Z" fill="#023A6E"/>
</svg>
