<svg width="262" height="174" viewBox="0 0 262 174" fill="none" xmlns="http://www.w3.org/2000/svg">
<rect width="262" height="174" rx="5" fill="#97C1CF"/>
<rect x="70.152" y="136.843" width="123.192" height="6.02272" rx="1.3688" fill="#023A6E"/>
<path d="M76.996 132.189C76.996 131.433 77.6089 130.82 78.3648 130.82H185.131C185.887 130.82 186.5 131.433 186.5 132.189V136.843H76.996V132.189Z" fill="#023A6E"/>
<path d="M76.996 59.6426H186.5V64.2965C186.5 65.0525 185.887 65.6653 185.131 65.6653H78.3648C77.6089 65.6653 76.996 65.0525 76.996 64.2965V59.6426Z" fill="#023A6E"/>
<path d="M83.84 126.166C83.84 125.41 84.4528 124.797 85.2088 124.797H178.287C179.043 124.797 179.656 125.41 179.656 126.166V130.82H83.84V126.166Z" fill="#023A6E"/>
<path d="M83.84 65.6653H179.656V72.5093C179.656 73.2652 179.043 73.8781 178.287 73.8781H85.2088C84.4528 73.8781 83.84 73.2652 83.84 72.5093V65.6653Z" fill="#023A6E"/>
<path d="M90.2733 73.8783H100.676L102.456 124.798H88.7676L90.2733 73.8783Z" fill="#023A6E"/>
<path d="M162.546 73.8783H172.949L174.728 124.798H161.04L162.546 73.8783Z" fill="#023A6E"/>
<path d="M138.455 73.8783H148.858L150.637 124.798H136.949L138.455 73.8783Z" fill="#023A6E"/>
<path d="M114.364 73.8783H124.767L126.547 124.798H112.859L114.364 73.8783Z" fill="#023A6E"/>
<path d="M131.107 30.9637C131.508 30.7512 131.988 30.7512 132.389 30.9637L186.5 59.6426H76.996L131.107 30.9637Z" fill="#023A6E"/>
</svg>
