<svg width="261" height="175" viewBox="0 0 261 175" fill="none" xmlns="http://www.w3.org/2000/svg">
<rect width="261" height="175" rx="5" fill="#97C1CF"/>
<rect x="54.6493" y="68.0422" width="58.3911" height="34.0886" rx="1.61439" transform="rotate(-16.6725 54.6493 68.0422)" fill="#023A6E"/>
<circle cx="68.5592" cy="55.3633" r="12.2328" transform="rotate(-16.6725 68.5592 55.3633)" fill="#023A6E"/>
<circle cx="92.043" cy="48.5002" r="12.2328" transform="rotate(-16.6725 92.043 48.5002)" fill="#023A6E"/>
<path d="M128.412 48.0363C128.846 47.5828 129.608 47.7694 129.784 48.3721L137.885 76.1724C138.06 76.7751 137.518 77.3419 136.908 77.1927L108.782 70.3084C108.172 70.1591 107.952 69.4057 108.386 68.9523L128.412 48.0363Z" fill="#023A6E"/>
<mask id="path-6-inside-1" fill="white">
<path d="M102.727 113.686L156.034 120.399C156.87 120.505 157.463 121.268 157.358 122.104L153.696 151.181C153.591 152.018 152.827 152.61 151.991 152.505L100.198 145.982C99.3616 145.877 98.7689 145.114 98.8742 144.277L102.727 113.686Z"/>
</mask>
<path d="M102.727 113.686L156.034 120.399C156.87 120.505 157.463 121.268 157.358 122.104L153.696 151.181C153.591 152.018 152.827 152.61 151.991 152.505L100.198 145.982C99.3616 145.877 98.7689 145.114 98.8742 144.277L102.727 113.686Z" stroke="#023A6E" stroke-width="4.8844" mask="url(#path-6-inside-1)"/>
<path d="M102.536 115.2C102.641 114.364 103.405 113.771 104.241 113.877L156.034 120.399C156.87 120.505 157.463 121.268 157.358 122.104L156.786 126.648C156.68 127.484 155.917 128.077 155.081 127.971L101.773 121.258L102.536 115.2Z" fill="#023A6E"/>
<rect x="101.773" y="121.258" width="55.2548" height="1.52638" transform="rotate(7.17776 101.773 121.258)" fill="#023A6E"/>
<path d="M112.69 116.479L121.921 117.642L118.464 121.821L109.233 120.659L112.69 116.479Z" fill="#97C1CF"/>
<path d="M127.834 118.387L137.065 119.549L133.608 123.729L124.377 122.567L127.834 118.387Z" fill="#97C1CF"/>
<path d="M142.978 120.294L152.209 121.456L148.752 125.636L139.521 124.474L142.978 120.294Z" fill="#97C1CF"/>
<path d="M101.396 109.181C101.188 108.364 101.681 107.533 102.498 107.325L153.084 94.4375C153.901 94.2294 154.732 94.7229 154.94 95.5398L156.071 99.9772C156.279 100.794 155.785 101.625 154.968 101.833L102.903 115.098L101.396 109.181Z" fill="#023A6E"/>
<path d="M110.107 106.811L119.123 104.514L117.436 109.669L108.42 111.966L110.107 106.811Z" fill="#97C1CF"/>
<path d="M124.898 103.043L133.914 100.746L132.227 105.901L123.211 108.198L124.898 103.043Z" fill="#97C1CF"/>
<path d="M139.69 99.2745L148.705 96.9776L147.018 102.133L138.003 104.43L139.69 99.2745Z" fill="#97C1CF"/>
<path d="M206.809 57.1904C199.888 72.0438 178.052 101.868 160.32 90.9427C145.74 81.9597 149.69 50.5734 156.611 35.72C163.532 20.8666 174.241 29.5358 185.939 34.9868C197.637 40.4378 213.73 42.337 206.809 57.1904Z" fill="#023A6E"/>
<path d="M175.413 53.9175C175.616 54.3509 175.406 54.8601 174.95 55.0043C172.139 55.8925 168.432 55.4325 166.428 54.607C164.395 53.769 161.145 51.031 160.042 47.8707C159.889 47.4332 160.152 46.9719 160.601 46.8568C164.851 45.7668 168.37 47.2167 169.313 47.6051C171.863 48.6559 174.165 51.253 175.413 53.9175Z" fill="#97C1CF"/>
<path d="M195.1 63.0912C195.303 63.5247 195.094 64.0338 194.638 64.1781C191.827 65.0663 188.12 64.6063 186.116 63.7807C184.082 62.9428 180.832 60.2047 179.729 57.0445C179.577 56.6069 179.84 56.1457 180.289 56.0305C184.538 54.9406 188.058 56.3905 189.001 56.7789C191.551 57.8296 193.852 60.4268 195.1 63.0912Z" fill="#97C1CF"/>
<path d="M182.067 75.2144C181.163 77.1561 170.698 82.9063 165.844 80.6444C160.99 78.3826 158.663 66.6718 159.567 64.7302C160.472 62.7886 164.202 71.4897 169.056 73.7515C173.91 76.0134 182.972 73.2728 182.067 75.2144Z" fill="#97C1CF"/>
</svg>
