<svg width="284" height="228" viewBox="0 0 284 228" fill="none" xmlns="http://www.w3.org/2000/svg">
<rect x="10.1792" y="80.6454" width="101.613" height="59.3214" rx="2.70219" transform="rotate(-16.6725 10.1792 80.6454)" fill="#023A6E"/>
<circle cx="34.3854" cy="58.5815" r="21.2876" transform="rotate(-16.6725 34.3854 58.5815)" fill="#023A6E"/>
<circle cx="75.2525" cy="46.6381" r="21.2876" transform="rotate(-16.6725 75.2525 46.6381)" fill="#023A6E"/>
<path d="M138.607 45.7631C139.334 45.0041 140.609 45.3163 140.903 46.3252L155.054 94.8836C155.348 95.8925 154.439 96.8412 153.419 96.5914L104.291 84.5667C103.27 84.3169 102.902 83.0558 103.629 82.2968L138.607 45.7631Z" fill="#023A6E"/>
<mask id="path-5-inside-1" fill="white">
<path d="M93.8442 160.075L186.711 171.77C188.111 171.947 189.103 173.224 188.926 174.624L182.529 225.425C182.353 226.825 181.075 227.817 179.675 227.641L89.343 216.265C87.9431 216.089 86.9511 214.811 87.1274 213.411L93.8442 160.075Z"/>
</mask>
<path d="M93.8442 160.075L186.711 171.77C188.111 171.947 189.103 173.224 188.926 174.624L182.529 225.425C182.353 226.825 181.075 227.817 179.675 227.641L89.343 216.265C87.9431 216.089 86.9511 214.811 87.1274 213.411L93.8442 160.075Z" stroke="#023A6E" stroke-width="8.17561" mask="url(#path-5-inside-1)"/>
<path d="M93.525 162.61C93.7013 161.21 94.9791 160.218 96.3791 160.394L186.711 171.77C188.111 171.947 189.103 173.224 188.926 174.624L187.905 182.732C187.729 184.132 186.451 185.124 185.051 184.947L92.1848 173.252L93.525 162.61Z" fill="#023A6E"/>
<rect x="92.1846" y="173.253" width="96.155" height="2.65622" transform="rotate(7.17776 92.1846 173.253)" fill="#023A6E"/>
<path d="M111.182 164.936L127.245 166.959L121.23 174.233L105.166 172.21L111.182 164.936Z" fill="#037CA5"/>
<path d="M137.536 168.255L153.6 170.278L147.584 177.552L131.521 175.529L137.536 168.255Z" fill="#037CA5"/>
<path d="M163.89 171.574L179.954 173.597L173.938 180.871L157.875 178.848L163.89 171.574Z" fill="#037CA5"/>
<path d="M91.5033 152.138C91.155 150.77 91.981 149.38 93.3484 149.031L181.575 126.554C182.943 126.205 184.334 127.031 184.682 128.399L186.699 136.317C187.048 137.684 186.222 139.075 184.854 139.424L94.1514 162.532L91.5033 152.138Z" fill="#023A6E"/>
<path d="M106.688 148.112L122.377 144.115L119.441 153.086L103.752 157.083L106.688 148.112Z" fill="#037CA5"/>
<path d="M132.427 141.554L148.116 137.557L145.181 146.528L129.492 150.525L132.427 141.554Z" fill="#037CA5"/>
<path d="M158.168 134.996L173.857 130.999L170.922 139.97L155.232 143.967L158.168 134.996Z" fill="#037CA5"/>
<path d="M274.969 61.7609C262.925 87.609 224.926 139.509 194.068 120.497C168.696 104.865 175.57 50.246 187.615 24.3979C199.659 -1.45015 218.293 13.6361 238.651 23.122C259.008 32.6079 287.014 35.9128 274.969 61.7609Z" fill="#023A6E"/>
<path d="M220.358 56.1168C220.696 56.8432 220.346 57.6949 219.582 57.9393C214.685 59.5081 208.199 58.7071 204.699 57.2651C201.148 55.8024 195.469 51.0125 193.567 45.4913C193.314 44.758 193.755 43.9862 194.506 43.7916C201.925 41.8695 208.074 44.403 209.719 45.0805C214.173 46.9157 218.191 51.4621 220.358 56.1168Z" fill="#0680A6"/>
<path d="M254.618 72.0812C254.956 72.8076 254.606 73.6593 253.843 73.9037C248.945 75.4725 242.459 74.6715 238.959 73.2295C235.409 71.7668 229.729 66.9769 227.827 61.4557C227.575 60.7223 228.016 59.9505 228.766 59.756C236.185 57.8339 242.334 60.3673 243.979 61.0448C248.434 62.8801 252.451 67.4265 254.618 72.0812Z" fill="#0680A6"/>
<path d="M231.914 93.1265C230.339 96.5053 212.13 106.512 203.682 102.576C195.235 98.6398 191.184 78.2606 192.759 74.8817C194.333 71.5029 200.825 86.6447 209.272 90.5807C217.719 94.5168 233.488 89.7477 231.914 93.1265Z" fill="#0680A6"/>
</svg>
