<svg width="378" height="263" viewBox="0 0 378 263" fill="none" xmlns="http://www.w3.org/2000/svg">
<path d="M11.1191 162.01H15.0587C17.611 162.01 19.5161 161.4 20.7737 160.179C22.0314 158.958 22.6603 157.312 22.6603 155.241C22.6603 153.206 22.0314 151.616 20.7737 150.469C19.5161 149.285 17.6665 148.693 15.2251 148.693H11.1191V162.01ZM4.12787 142.978H15.8355C20.0524 142.978 23.4186 144.125 25.934 146.418C28.4863 148.712 29.7625 151.653 29.7625 155.241C29.7625 159.051 28.4493 162.084 25.823 164.34C23.2336 166.56 19.9599 167.67 16.0019 167.67H11.1191V180.376H4.12787V142.978ZM41.3405 152.244V157.238C42.6352 153.761 45.0026 152.023 48.4427 152.023C49.2195 152.023 49.8484 152.078 50.3293 152.189V158.625C49.4785 158.255 48.5352 158.071 47.4995 158.071C45.6869 158.071 44.2073 158.81 43.0606 160.29C41.9139 161.77 41.3405 163.619 41.3405 165.839V180.376H34.6267L34.6821 152.244H41.3405ZM66.2837 180.82C62.0298 180.82 58.7006 179.488 56.2962 176.825C53.9288 174.162 52.7451 170.758 52.7451 166.615C52.7451 162.324 53.9843 158.792 56.4627 156.018C58.941 153.206 62.2147 151.801 66.2837 151.801C70.6117 151.801 73.9593 153.169 76.3267 155.907C78.6941 158.607 79.8779 162.047 79.8779 166.227C79.8779 170.481 78.6757 173.977 76.2713 176.714C73.9038 179.451 70.5747 180.82 66.2837 180.82ZM66.2837 157.238C64.1753 157.238 62.5477 158.107 61.4009 159.846C60.2912 161.585 59.7364 163.767 59.7364 166.393C59.7364 168.983 60.3097 171.147 61.4564 172.885C62.6031 174.624 64.2307 175.493 66.3392 175.493C68.5217 175.493 70.1678 174.642 71.2775 172.941C72.3872 171.239 72.9421 169.075 72.9421 166.449C72.9421 163.749 72.4057 161.548 71.333 159.846C70.2602 158.107 68.5772 157.238 66.2837 157.238ZM79.6798 190.419V185.148C80.9744 185.703 82.1027 185.98 83.0644 185.98C85.0249 185.98 86.0052 184.704 86.0052 182.152V152.244H92.6635V182.263C92.6635 185.037 91.9052 187.238 90.3886 188.865C88.872 190.493 86.708 191.307 83.8967 191.307C82.565 191.307 81.1594 191.011 79.6798 190.419ZM85.2839 143.811C85.2839 142.701 85.6723 141.758 86.4491 140.981C87.2259 140.204 88.1692 139.816 89.2789 139.816C90.4256 139.816 91.3874 140.204 92.1642 140.981C92.941 141.758 93.3294 142.701 93.3294 143.811C93.3294 144.957 92.941 145.919 92.1642 146.696C91.3874 147.473 90.4256 147.861 89.2789 147.861C88.1692 147.861 87.2259 147.473 86.4491 146.696C85.6723 145.919 85.2839 144.957 85.2839 143.811ZM116.791 164.008V163.175C116.717 161.363 116.218 159.92 115.293 158.847C114.405 157.738 113.092 157.183 111.353 157.183C109.763 157.183 108.376 157.775 107.192 158.958C106.045 160.105 105.305 161.788 104.972 164.008H116.791ZM121.341 173.052V178.822C119.38 180.043 116.551 180.653 112.851 180.653C108.376 180.653 104.843 179.322 102.254 176.658C99.6642 173.995 98.3695 170.555 98.3695 166.338C98.3695 161.862 99.5902 158.348 102.032 155.796C104.473 153.243 107.525 151.967 111.187 151.967C114.849 151.967 117.753 153.077 119.898 155.296C122.044 157.516 123.116 160.752 123.116 165.006C123.116 166.042 122.987 167.374 122.728 169.001H105.083C105.564 171.036 106.563 172.589 108.08 173.662C109.633 174.735 111.557 175.271 113.85 175.271C116.809 175.271 119.306 174.531 121.341 173.052ZM134.563 166.393C134.637 169.057 135.432 171.202 136.949 172.83C138.503 174.457 140.593 175.271 143.219 175.271C145.512 175.271 147.639 174.642 149.6 173.385V179.155C147.639 180.302 145.198 180.875 142.276 180.875C137.948 180.875 134.434 179.507 131.733 176.769C129.07 174.032 127.738 170.573 127.738 166.393C127.775 162.287 129.107 158.829 131.733 156.018C134.397 153.206 138.022 151.801 142.609 151.801C145.346 151.801 147.676 152.318 149.6 153.354V159.236C147.75 158.052 145.642 157.46 143.274 157.46C140.685 157.46 138.595 158.274 137.004 159.902C135.414 161.529 134.6 163.693 134.563 166.393ZM163.401 157.238V171.554C163.401 172.737 163.715 173.644 164.344 174.272C164.973 174.864 165.842 175.16 166.952 175.16C168.357 175.16 169.652 174.772 170.836 173.995V179.71C169.541 180.339 167.877 180.653 165.842 180.653C159.776 180.653 156.742 177.583 156.742 171.443V157.238H152.525V152.244H156.742V145.475H163.401V152.244H170.392V157.238H163.401ZM212.725 142.978H219.772V180.376H212.725V164.673H197.356V180.376H190.364V142.978H197.356V158.625H212.725V142.978ZM239.299 180.82C235.045 180.82 231.716 179.488 229.311 176.825C226.944 174.162 225.76 170.758 225.76 166.615C225.76 162.324 226.999 158.792 229.478 156.018C231.956 153.206 235.23 151.801 239.299 151.801C243.627 151.801 246.975 153.169 249.342 155.907C251.709 158.607 252.893 162.047 252.893 166.227C252.893 170.481 251.691 173.977 249.286 176.714C246.919 179.451 243.59 180.82 239.299 180.82ZM239.299 157.238C237.19 157.238 235.563 158.107 234.416 159.846C233.306 161.585 232.752 163.767 232.752 166.393C232.752 168.983 233.325 171.147 234.472 172.885C235.618 174.624 237.246 175.493 239.354 175.493C241.537 175.493 243.183 174.642 244.293 172.941C245.402 171.239 245.957 169.075 245.957 166.449C245.957 163.749 245.421 161.548 244.348 159.846C243.275 158.107 241.592 157.238 239.299 157.238ZM265.29 152.244V157.238C266.585 153.761 268.952 152.023 272.393 152.023C273.169 152.023 273.798 152.078 274.279 152.189V158.625C273.428 158.255 272.485 158.071 271.449 158.071C269.637 158.071 268.157 158.81 267.01 160.29C265.864 161.77 265.29 163.619 265.29 165.839V180.376H258.576L258.632 152.244H265.29ZM278.47 180.376V152.244H285.129V180.376H278.47ZM277.805 143.811C277.805 142.701 278.193 141.758 278.97 140.981C279.747 140.204 280.69 139.816 281.8 139.816C282.909 139.816 283.853 140.204 284.629 140.981C285.406 141.758 285.795 142.701 285.795 143.811C285.795 144.957 285.406 145.919 284.629 146.696C283.853 147.473 282.909 147.861 281.8 147.861C280.69 147.861 279.747 147.473 278.97 146.696C278.193 145.919 277.805 144.957 277.805 143.811ZM312.027 152.244V156.905L298.932 174.994H312.748V180.376H291.33V175.438L304.37 157.571H291.83V152.244H312.027ZM330.656 180.82C326.402 180.82 323.073 179.488 320.669 176.825C318.301 174.162 317.118 170.758 317.118 166.615C317.118 162.324 318.357 158.792 320.835 156.018C323.313 153.206 326.587 151.801 330.656 151.801C334.984 151.801 338.332 153.169 340.699 155.907C343.067 158.607 344.25 162.047 344.25 166.227C344.25 170.481 343.048 173.977 340.644 176.714C338.276 179.451 334.947 180.82 330.656 180.82ZM330.656 157.238C328.548 157.238 326.92 158.107 325.773 159.846C324.664 161.585 324.109 163.767 324.109 166.393C324.109 168.983 324.682 171.147 325.829 172.885C326.976 174.624 328.603 175.493 330.712 175.493C332.894 175.493 334.54 174.642 335.65 172.941C336.76 171.239 337.315 169.075 337.315 166.449C337.315 163.749 336.778 161.548 335.705 159.846C334.633 158.107 332.95 157.238 330.656 157.238ZM356.648 152.244V157.072C358.238 153.632 361.123 151.912 365.303 151.912C368.115 151.912 370.334 152.762 371.962 154.464C373.589 156.165 374.403 158.57 374.403 161.677V180.376H367.745V163.064C367.745 161.215 367.301 159.828 366.413 158.903C365.525 157.941 364.323 157.46 362.807 157.46C361.068 157.46 359.607 158.144 358.423 159.513C357.239 160.845 356.648 162.768 356.648 165.284V180.376H349.989V152.244H356.648Z" fill="white"/>
<path d="M65.0856 254.211V231.93H66.6401V252.748H77.2622V254.211H65.0856ZM87.4271 254.516C85.0192 254.516 83.1396 253.774 81.7884 252.291C80.4473 250.807 79.7767 248.73 79.7767 246.058C79.7767 243.416 80.427 241.303 81.7274 239.718C83.0279 238.123 84.7804 237.325 86.9851 237.325C88.9358 237.325 90.475 238.006 91.6028 239.367C92.7305 240.729 93.2944 242.578 93.2944 244.915V246.134H81.3617C81.382 248.41 81.9103 250.147 82.9466 251.346C83.9931 252.545 85.4866 253.144 87.4271 253.144C88.3719 253.144 89.2 253.078 89.9112 252.946C90.6325 252.814 91.5418 252.529 92.6391 252.093V253.464C91.7044 253.871 90.8408 254.145 90.0483 254.287C89.2558 254.44 88.3821 254.516 87.4271 254.516ZM86.9851 238.666C85.39 238.666 84.1099 239.195 83.1447 240.251C82.1795 241.298 81.6157 242.812 81.4531 244.793H91.6942C91.6942 242.873 91.2777 241.374 90.4445 240.297C89.6114 239.21 88.4583 238.666 86.9851 238.666ZM102.24 253.175C103.195 253.175 104.028 253.093 104.739 252.931V254.15C104.008 254.394 103.165 254.516 102.21 254.516C100.747 254.516 99.6646 254.125 98.9636 253.342C98.2727 252.56 97.9273 251.331 97.9273 249.654V238.956H95.4737V238.072L97.9273 237.386L98.6893 233.637H99.4665V237.645H104.328V238.956H99.4665V249.441C99.4665 250.711 99.69 251.651 100.137 252.26C100.584 252.87 101.285 253.175 102.24 253.175ZM122.616 254.211H121.046V233.393H113.807V231.93H129.855V233.393H122.616V254.211ZM144.348 254.211V243.467C144.348 241.801 143.997 240.592 143.296 239.84C142.595 239.078 141.508 238.697 140.035 238.697C138.054 238.697 136.601 239.2 135.676 240.206C134.762 241.201 134.305 242.822 134.305 245.067V254.211H132.796V230.498H134.305V238.042L134.228 240.16H134.335C134.955 239.164 135.737 238.443 136.682 237.996C137.627 237.549 138.8 237.325 140.202 237.325C143.961 237.325 145.841 239.342 145.841 243.375V254.211H144.348ZM157.896 254.516C155.488 254.516 153.608 253.774 152.257 252.291C150.916 250.807 150.245 248.73 150.245 246.058C150.245 243.416 150.896 241.303 152.196 239.718C153.496 238.123 155.249 237.325 157.454 237.325C159.404 237.325 160.944 238.006 162.071 239.367C163.199 240.729 163.763 242.578 163.763 244.915V246.134H151.83C151.851 248.41 152.379 250.147 153.415 251.346C154.462 252.545 155.955 253.144 157.896 253.144C158.841 253.144 159.669 253.078 160.38 252.946C161.101 252.814 162.01 252.529 163.108 252.093V253.464C162.173 253.871 161.309 254.145 160.517 254.287C159.724 254.44 158.851 254.516 157.896 254.516ZM157.454 238.666C155.859 238.666 154.579 239.195 153.613 240.251C152.648 241.298 152.084 242.812 151.922 244.793H162.163C162.163 242.873 161.746 241.374 160.913 240.297C160.08 239.21 158.927 238.666 157.454 238.666ZM174.858 237.325C175.559 237.325 176.31 237.396 177.113 237.539L176.823 238.986C176.133 238.814 175.416 238.727 174.675 238.727C173.262 238.727 172.104 239.327 171.2 240.526C170.296 241.725 169.844 243.238 169.844 245.067V254.211H168.335V237.645H169.615L169.767 240.632H169.874C170.555 239.413 171.281 238.56 172.053 238.072C172.826 237.574 173.76 237.325 174.858 237.325ZM187.186 254.516C184.779 254.516 182.899 253.774 181.548 252.291C180.207 250.807 179.536 248.73 179.536 246.058C179.536 243.416 180.186 241.303 181.487 239.718C182.787 238.123 184.54 237.325 186.745 237.325C188.695 237.325 190.234 238.006 191.362 239.367C192.49 240.729 193.054 242.578 193.054 244.915V246.134H181.121C181.141 248.41 181.67 250.147 182.706 251.346C183.752 252.545 185.246 253.144 187.186 253.144C188.131 253.144 188.959 253.078 189.671 252.946C190.392 252.814 191.301 252.529 192.398 252.093V253.464C191.464 253.871 190.6 254.145 189.808 254.287C189.015 254.44 188.142 254.516 187.186 254.516ZM186.745 238.666C185.149 238.666 183.869 239.195 182.904 240.251C181.939 241.298 181.375 242.812 181.212 244.793H191.454C191.454 242.873 191.037 241.374 190.204 240.297C189.371 239.21 188.218 238.666 186.745 238.666ZM206.114 231.93H212.225C214.979 231.93 217.001 232.398 218.291 233.332C219.581 234.267 220.226 235.679 220.226 237.569C220.226 238.859 219.83 239.936 219.038 240.8C218.255 241.653 217.107 242.202 215.593 242.446V242.537C217.371 242.801 218.677 243.365 219.51 244.229C220.353 245.082 220.775 246.276 220.775 247.81C220.775 249.863 220.094 251.442 218.733 252.55C217.371 253.657 215.441 254.211 212.942 254.211H206.114V231.93ZM207.669 241.852H212.576C214.669 241.852 216.188 241.506 217.133 240.815C218.088 240.114 218.565 239.022 218.565 237.539C218.565 236.055 218.027 234.978 216.95 234.308C215.883 233.637 214.288 233.302 212.164 233.302H207.669V241.852ZM207.669 243.223V252.839H212.911C217.036 252.839 219.099 251.163 219.099 247.81C219.099 244.752 216.924 243.223 212.576 243.223H207.669ZM231.991 254.516C229.583 254.516 227.704 253.774 226.353 252.291C225.012 250.807 224.341 248.73 224.341 246.058C224.341 243.416 224.991 241.303 226.292 239.718C227.592 238.123 229.345 237.325 231.549 237.325C233.5 237.325 235.039 238.006 236.167 239.367C237.295 240.729 237.859 242.578 237.859 244.915V246.134H225.926C225.946 248.41 226.475 250.147 227.511 251.346C228.557 252.545 230.051 253.144 231.991 253.144C232.936 253.144 233.764 253.078 234.475 252.946C235.197 252.814 236.106 252.529 237.203 252.093V253.464C236.269 253.871 235.405 254.145 234.613 254.287C233.82 254.44 232.946 254.516 231.991 254.516ZM231.549 238.666C229.954 238.666 228.674 239.195 227.709 240.251C226.744 241.298 226.18 242.812 226.017 244.793H236.258C236.258 242.873 235.842 241.374 235.009 240.297C234.176 239.21 233.023 238.666 231.549 238.666ZM250.919 254.211V231.93H252.474V252.748H263.096V254.211H250.919ZM268.079 254.211H266.57V237.645H268.079V254.211ZM266.357 233.043C266.357 232.068 266.677 231.58 267.317 231.58C267.632 231.58 267.876 231.707 268.049 231.961C268.231 232.215 268.323 232.576 268.323 233.043C268.323 233.5 268.231 233.861 268.049 234.125C267.876 234.389 267.632 234.521 267.317 234.521C266.677 234.521 266.357 234.028 266.357 233.043ZM286.565 237.645V238.697L283.136 238.91C284.05 240.048 284.508 241.298 284.508 242.659C284.508 244.254 283.974 245.55 282.907 246.545C281.851 247.531 280.428 248.024 278.64 248.024C277.888 248.024 277.36 247.993 277.055 247.932C276.456 248.247 275.999 248.618 275.684 249.045C275.369 249.471 275.211 249.923 275.211 250.401C275.211 250.929 275.409 251.315 275.806 251.559C276.212 251.803 276.888 251.925 277.833 251.925H280.728C282.526 251.925 283.903 252.291 284.858 253.022C285.813 253.744 286.291 254.815 286.291 256.238C286.291 257.985 285.579 259.331 284.157 260.276C282.745 261.231 280.728 261.709 278.107 261.709C276.024 261.709 274.409 261.308 273.261 260.505C272.123 259.702 271.554 258.585 271.554 257.152C271.554 256.014 271.904 255.069 272.605 254.318C273.316 253.566 274.277 253.053 275.486 252.778C274.988 252.565 274.586 252.265 274.282 251.879C273.987 251.483 273.84 251.031 273.84 250.523C273.84 249.415 274.546 248.44 275.958 247.597C274.993 247.201 274.241 246.581 273.703 245.738C273.164 244.884 272.895 243.909 272.895 242.812C272.895 241.156 273.418 239.83 274.465 238.834C275.521 237.828 276.944 237.325 278.732 237.325C279.819 237.325 280.662 237.432 281.261 237.645H286.565ZM273.154 257.015C273.154 259.291 274.846 260.429 278.229 260.429C282.577 260.429 284.751 259.042 284.751 256.268C284.751 255.273 284.411 254.551 283.73 254.104C283.05 253.657 281.947 253.434 280.423 253.434H277.711C274.673 253.434 273.154 254.627 273.154 257.015ZM274.419 242.812C274.419 244.092 274.805 245.087 275.577 245.799C276.359 246.5 277.401 246.85 278.701 246.85C280.083 246.85 281.14 246.5 281.871 245.799C282.613 245.098 282.984 244.082 282.984 242.751C282.984 241.338 282.603 240.282 281.841 239.581C281.089 238.87 280.032 238.514 278.671 238.514C277.35 238.514 276.309 238.895 275.547 239.657C274.795 240.409 274.419 241.46 274.419 242.812ZM301.53 254.211V243.467C301.53 241.801 301.18 240.592 300.479 239.84C299.778 239.078 298.691 238.697 297.217 238.697C295.236 238.697 293.783 239.2 292.859 240.206C291.945 241.201 291.487 242.822 291.487 245.067V254.211H289.979V230.498H291.487V238.042L291.411 240.16H291.518C292.138 239.164 292.92 238.443 293.865 237.996C294.81 237.549 295.983 237.325 297.385 237.325C301.144 237.325 303.024 239.342 303.024 243.375V254.211H301.53ZM312.762 253.175C313.717 253.175 314.55 253.093 315.261 252.931V254.15C314.53 254.394 313.687 254.516 312.732 254.516C311.269 254.516 310.186 254.125 309.485 253.342C308.795 252.56 308.449 251.331 308.449 249.654V238.956H305.996V238.072L308.449 237.386L309.211 233.637H309.988V237.645H314.85V238.956H309.988V249.441C309.988 250.711 310.212 251.651 310.659 252.26C311.106 252.87 311.807 253.175 312.762 253.175Z" fill="white"/>
<line y1="208.94" x2="378" y2="208.94" stroke="white" stroke-width="1.73394"/>
<rect x="102.137" y="36.9434" width="6.93578" height="50.2844" rx="3.46789" transform="rotate(-45 102.137 36.9434)" fill="white"/>
<rect x="270.535" y="32.3491" width="6.93578" height="50.2844" rx="3.46789" transform="rotate(45 270.535 32.3491)" fill="white"/>
<path d="M123.977 123.977C123.977 88.0659 153.089 58.9541 189 58.9541C224.911 58.9541 254.023 88.0659 254.023 123.977" stroke="white" stroke-width="4.33486"/>
<rect x="185.532" width="6.93578" height="50.2844" rx="3.46789" fill="white"/>
<rect x="262.693" y="117.042" width="6.93578" height="50.2844" rx="3.46789" transform="rotate(-90 262.693 117.042)" fill="white"/>
<rect x="65.0229" y="117.042" width="6.93578" height="50.2844" rx="3.46789" transform="rotate(-90 65.0229 117.042)" fill="white"/>
</svg>
